<styles> background-color:white; 
<?xml version="1.0" standalone="no"?>
<!DOCTYPE svg PUBLIC "-//W3C//DTD SVG 20010904//EN"
 "http://www.w3.org/TR/2001/REC-SVG-20010904/DTD/svg10.dtd">
<svg version="1.0" xmlns="http://www.w3.org/2000/svg"
 width="300.000000pt" height="284.000000pt" viewBox="0 0 300.000000 284.000000"
 preserveAspectRatio="xMidYMid meet">

<g transform="translate(0.000000,284.000000) scale(0.100000,-0.100000)"
fill="#000000" stroke="none">
<path d="M1590 2569 c0 -5 -4 -7 -10 -4 -5 3 -10 1 -10 -4 0 -6 -8 -11 -17
-11 -15 0 -16 2 -3 10 9 6 10 10 3 10 -20 0 -43 -12 -38 -20 3 -4 -3 -7 -13
-6 -9 0 -21 -9 -26 -21 -6 -12 -22 -24 -38 -27 -15 -3 -36 -14 -47 -25 -12
-12 -27 -18 -36 -14 -10 3 -27 -5 -44 -21 -24 -23 -27 -33 -26 -84 1 -41 -4
-65 -18 -84 -21 -32 -6 -38 31 -12 17 11 26 13 36 5 8 -7 23 -7 44 -1 18 5 32
6 32 2 0 -3 5 -1 12 6 7 7 26 12 42 12 35 0 95 33 97 52 1 7 3 20 4 28 1 8 3
23 4 32 1 17 61 56 61 41 1 -5 10 3 20 16 26 31 26 85 0 111 -21 21 -60 27
-60 9z m70 -65 c0 -18 -4 -35 -8 -38 -4 -2 -6 11 -4 30 3 24 -2 42 -14 57
l-19 22 23 -19 c14 -13 22 -30 22 -52z m-30 21 c13 -34 -5 -71 -41 -84 -21 -7
-31 -19 -39 -50 -14 -52 -47 -76 -96 -68 -30 5 -36 3 -44 -18 -9 -22 -15 -25
-60 -22 l-50 2 0 44 c0 36 5 48 34 75 53 49 93 76 111 76 9 0 30 11 47 25 16
14 40 25 53 25 13 0 27 5 30 10 12 19 45 10 55 -15z m-307 -104 c-15 -16 -30
-27 -32 -25 -6 6 40 54 51 54 5 0 -3 -13 -19 -29z m209 -102 c-25 -23 -41 -29
-65 -27 -19 2 -37 -3 -45 -12 -11 -13 -12 -12 -3 6 8 16 17 19 44 16 26 -3 41
2 63 22 16 14 31 25 34 25 3 0 -10 -13 -28 -30z"/>
<path d="M1067 2403 c-29 -34 -116 -220 -157 -339 -95 -276 -149 -569 -150
-824 -1 -130 -29 -4 -45 205 -6 74 9 374 21 420 4 15 3 17 -4 5 -14 -22 -32
-160 -39 -295 -5 -106 4 -243 24 -367 5 -37 4 -40 -18 -36 -20 3 -28 19 -65
133 -61 189 -54 99 11 -130 4 -16 -3 -24 -32 -38 -41 -19 -108 -75 -100 -84 3
-3 27 9 52 27 79 54 147 74 260 74 92 1 104 -1 153 -28 58 -32 62 -40 14 -27
-47 14 -39 6 23 -23 41 -18 59 -34 71 -59 32 -67 -7 -144 -68 -135 -23 3 -25
11 -13 58 6 22 4 21 -14 -7 -12 -19 -32 -35 -48 -39 -47 -10 -53 -13 -59 -29
-10 -26 3 -28 28 -6 32 31 82 25 86 -9 5 -41 -39 -75 -93 -73 -65 2 -174 63
-237 132 -45 48 -49 51 -31 19 l21 -36 -24 -6 c-13 -4 -24 -13 -24 -21 0 -18
2 -18 34 -4 22 10 30 7 68 -24 47 -39 148 -89 181 -91 15 -1 36 -27 74 -90 68
-114 197 -297 246 -350 38 -41 37 -41 -6 19 -56 76 -116 171 -197 309 -58 100
-62 110 -46 121 15 12 41 -5 204 -132 178 -138 317 -232 328 -221 3 3 -19 23
-48 44 -90 65 -402 305 -423 326 -17 16 -18 20 -5 28 8 5 11 10 6 10 -6 0 -6
4 0 10 8 8 72 -26 210 -108 109 -66 277 -161 372 -212 143 -77 177 -91 200
-85 27 7 27 7 -17 26 -34 15 -42 22 -33 31 7 7 12 19 12 27 0 12 -5 10 -18 -7
-12 -15 -24 -21 -35 -17 -14 6 -11 12 20 41 27 26 34 39 31 59 -3 14 -1 28 4
31 13 8 74 -52 105 -103 l25 -43 76 42 c43 23 81 45 86 49 5 4 -1 20 -13 35
l-22 27 25 26 c31 34 46 64 46 95 0 39 -10 56 -35 56 -12 0 -28 7 -35 15 -7 9
-21 13 -31 10 -11 -4 -28 -3 -40 0 -19 6 -18 9 17 39 49 42 39 64 -16 36 -22
-11 -48 -20 -59 -20 -38 0 -30 17 20 40 77 36 157 126 133 149 -4 3 -9 1 -11
-6 -12 -34 -53 -80 -93 -104 -70 -42 -88 -45 -102 -15 -9 21 -8 29 5 44 10 10
17 24 17 30 0 6 12 9 33 6 38 -6 96 26 104 57 8 30 23 23 74 -31 48 -51 130
-203 166 -308 11 -33 22 -51 30 -47 60 23 243 225 204 225 -5 0 -12 -9 -16
-20 -10 -30 -54 -60 -91 -60 -34 0 -52 14 -34 25 20 12 10 26 -11 15 -11 -7
-24 -9 -27 -5 -12 11 14 40 60 65 55 30 78 49 78 63 0 5 -8 3 -18 -5 -9 -9
-33 -23 -52 -33 -19 -10 -46 -27 -59 -39 l-24 -21 21 36 c12 20 25 56 28 80 5
37 2 47 -15 63 -20 18 -21 18 -56 -8 l-35 -27 0 24 c0 14 12 32 31 46 37 28
63 84 52 114 -4 12 -6 27 -5 32 0 6 -15 42 -36 80 l-37 70 -67 3 c-56 2 -68 0
-68 -13 0 -14 33 -34 83 -49 32 -10 12 -31 -28 -31 -27 0 -46 7 -61 23 -13 12
-28 22 -34 22 -5 0 -10 5 -10 10 0 17 43 70 56 70 17 0 37 27 25 34 -5 3 -7
15 -4 26 6 24 -21 37 -42 20 -19 -15 -19 -8 -1 34 8 18 23 40 34 47 17 13 18
17 6 33 -8 12 -21 17 -34 13 -11 -3 -20 0 -20 6 0 7 -5 5 -10 -3 -8 -12 -10
-11 -10 8 0 12 -4 22 -10 22 -5 0 -10 5 -10 10 0 7 7 7 21 -1 17 -9 23 -8 30
2 13 20 11 35 -2 22 -9 -9 -17 -8 -34 3 -30 20 -37 7 -26 -50 6 -34 5 -49 -4
-56 -10 -8 -17 1 -30 42 -39 119 -114 213 -190 238 -36 12 -110 9 -146 -5 -27
-10 -35 44 -10 61 26 19 24 83 -4 98 -11 6 -24 17 -31 25 -8 10 -15 11 -32 2
-18 -10 -24 -6 -53 34 -17 24 -49 56 -71 71 -46 32 -131 56 -166 47 -20 -5
-30 0 -47 21 -21 26 -21 30 -7 70 9 25 12 53 8 69 -6 24 -11 27 -45 27 -32 0
-44 -6 -70 -35 -17 -20 -31 -40 -31 -44 0 -5 -9 -11 -20 -14 -25 -6 -25 -6 5
53 25 50 22 65 -8 33z m162 -42 c-2 -6 -10 2 -17 17 -11 25 -11 25 4 10 9 -9
15 -21 13 -27z m-23 -37 c0 -21 -2 -32 -4 -25 -2 6 -8 9 -13 5 -5 -3 -9 3 -10
13 0 16 -1 16 -10 -2 l-9 -20 3 20 c2 11 9 19 15 17 7 -1 15 5 18 13 9 22 10
19 10 -21z m-51 -34 c14 -5 24 -14 21 -19 -3 -4 4 -17 17 -27 l22 -19 -19 23
c-11 12 -14 22 -9 22 17 0 42 -45 33 -59 -5 -10 -20 0 -50 33 -35 38 -49 46
-77 46 -30 0 -34 -3 -28 -17 4 -10 8 -34 10 -53 1 -19 0 -25 -2 -12 -2 12 -7
22 -11 22 -4 0 -8 16 -9 35 -2 34 -1 35 37 35 21 0 51 -4 65 -10z m-20 -35 c0
-21 -31 -33 -46 -18 -5 5 -7 17 -3 27 9 24 49 17 49 -9z m-87 -43 c6 -24 8
-41 5 -38 -4 3 -12 1 -19 -5 -23 -19 -40 33 -24 71 15 37 23 30 38 -28z m142
-10 c0 -13 -3 -12 -16 4 -8 10 -13 14 -10 9 7 -16 -10 -39 -23 -31 -8 5 -6 14
6 31 19 25 43 17 43 -13z m207 -16 c15 -8 25 -15 22 -16 -4 0 -50 -20 -103
-45 l-97 -45 3 48 3 47 55 11 c49 10 52 12 25 16 -16 3 -9 4 17 2 26 -2 60
-10 75 -18z m-253 -15 c3 -5 -5 -16 -18 -25 -18 -12 -26 -12 -29 -3 -3 7 -6 5
-6 -5 -1 -21 -21 -25 -21 -4 0 16 27 29 43 19 6 -4 8 0 4 10 -7 18 17 25 27 8z
m329 -39 c15 -16 24 -31 21 -35 -4 -4 -1 -13 6 -22 17 -21 11 -24 -30 -16 -34
6 -35 8 -37 54 -1 26 2 47 6 47 4 0 19 -13 34 -28z m-413 -8 c0 -8 -5 -12 -10
-9 -6 4 -8 11 -5 16 9 14 15 11 15 -7z m330 -25 c13 -7 13 -8 0 -9 -13 0 -13
-1 0 -10 21 -13 2 -11 -40 5 -24 9 -29 14 -15 14 17 1 18 3 5 12 -11 8 -9 9
10 3 14 -3 32 -10 40 -15z m-28 -47 c-9 -3 -82 26 -82 33 0 2 20 -4 45 -13 26
-9 42 -18 37 -20z m168 7 c15 -28 5 -23 -15 7 -9 15 -12 23 -6 20 6 -4 16 -16
21 -27z m50 -19 c-8 -5 -17 -7 -19 -4 -3 3 1 9 9 14 8 5 17 7 19 4 3 -3 -1 -9
-9 -14z m-526 -29 c11 -12 14 -21 7 -21 -6 0 -28 -7 -47 -15 l-36 -15 31 -31
c23 -22 36 -29 52 -24 21 7 21 16 4 59 -6 14 -4 17 6 14 8 -3 14 -12 14 -22 0
-9 7 -21 15 -26 12 -7 11 -12 -5 -29 -10 -12 -23 -20 -29 -19 -6 1 -28 -6 -50
-15 -21 -9 -40 -17 -42 -17 -2 0 -4 23 -4 51 0 57 18 129 32 129 5 0 6 5 2 11
-10 18 28 -6 50 -30z m254 11 c6 -18 -15 -14 -22 4 -4 10 -1 14 6 12 6 -2 14
-10 16 -16z m212 1 c25 -15 34 -15 69 -3 42 14 58 10 46 -10 -4 -7 -18 -10
-31 -7 -13 2 -24 0 -24 -5 0 -5 14 -11 30 -14 17 -4 30 -11 30 -16 0 -5 -4 -7
-8 -4 -4 3 -26 7 -48 10 -21 2 -47 8 -56 11 -36 14 -17 -11 23 -29 22 -11 43
-24 46 -29 4 -6 1 -7 -7 -2 -8 5 -11 3 -8 -6 3 -8 10 -13 16 -12 5 1 12 -6 15
-17 3 -13 -3 -24 -19 -35 -24 -15 -24 -15 -24 18 0 22 -8 41 -23 55 l-23 22
-38 -26 c-20 -14 -56 -34 -78 -44 -39 -17 -43 -17 -54 -2 -7 9 -10 27 -7 40 3
12 0 29 -7 37 -19 23 -5 43 41 56 33 10 38 14 23 20 -12 5 1 8 34 8 34 1 65
-5 82 -16z m-265 -13 c3 -5 2 -10 -4 -10 -5 0 -13 5 -16 10 -3 6 -2 10 4 10 5
0 13 -4 16 -10z m215 -135 c-7 -9 -15 -13 -17 -11 -7 7 7 26 19 26 6 0 6 -6
-2 -15z m331 -13 c-7 -2 -18 1 -23 6 -8 8 -4 9 13 5 13 -4 18 -8 10 -11z
m-364 -4 c-2 -7 -12 -12 -21 -12 -9 1 -16 -2 -16 -7 0 -5 -7 -9 -15 -9 -24 0
-17 15 13 27 37 15 44 15 39 1z m-421 -13 c-11 -8 -25 -15 -30 -15 -6 1 0 7
14 15 32 19 40 18 16 0z m71 -31 c-2 -2 -12 3 -23 11 -16 13 -17 16 -4 24 11
8 17 5 23 -11 4 -11 6 -22 4 -24z m737 34 c-5 -7 -2 -9 8 -5 9 3 24 -3 34 -14
9 -10 14 -19 10 -19 -12 0 28 -61 46 -71 10 -5 15 -16 12 -24 -4 -8 -1 -15 5
-15 6 0 8 -7 4 -17 -4 -9 -2 -14 3 -11 5 3 10 -9 11 -28 1 -30 -1 -33 -17 -24
-10 5 -21 26 -24 47 -11 61 -28 95 -67 138 -32 34 -41 55 -23 55 3 0 2 -5 -2
-12z m-299 -8 c11 -5 14 -9 7 -9 -7 -1 -11 -5 -8 -10 14 -23 -90 -83 -139 -79
-30 3 -30 6 -8 38 23 33 42 48 78 59 38 12 45 12 70 1z m-443 -63 c20 -8 40
-12 44 -9 4 4 5 1 2 -7 -3 -10 -88 -51 -107 -51 -2 0 -1 12 2 26 3 15 1 40 -4
57 -8 27 -7 28 9 14 9 -8 34 -22 54 -30z m-102 -4 c0 -50 -57 -82 -88 -51 -17
17 -15 55 4 62 23 9 24 9 25 -26 l2 -33 4 30 c4 31 29 58 44 49 5 -3 9 -17 9
-31z m805 13 c0 -15 -4 -21 -9 -16 -5 5 -6 16 -3 24 9 22 12 20 12 -8z m43 -7
c-3 -8 -7 -3 -11 10 -4 17 -3 21 5 13 5 -5 8 -16 6 -23z m-294 -3 c-6 -16 -82
-52 -91 -43 -3 4 -1 7 6 7 7 0 29 11 49 25 43 29 43 29 36 11z m69 -16 c-3
-12 -8 -19 -11 -16 -5 6 5 36 12 36 2 0 2 -9 -1 -20z m264 -6 c-3 -3 -12 -4
-19 -1 -8 3 -5 6 6 6 11 1 17 -2 13 -5z m-626 -34 c10 -6 19 -17 19 -24 0 -11
-9 -10 -46 2 -36 12 -56 13 -90 5 -32 -8 -44 -7 -41 1 8 23 122 35 158 16z
m269 -25 c0 -28 -4 -35 -20 -35 -24 0 -26 18 -4 48 21 30 24 28 24 -13z m230
15 c-34 -11 -60 -11 -35 0 11 5 29 8 40 8 16 0 15 -2 -5 -8z m-500 -35 c14 -7
35 -24 48 -38 l23 -24 -23 -15 c-13 -8 -34 -21 -47 -28 -22 -11 -23 -11 -18 9
6 26 7 26 -43 0 -27 -14 -49 -19 -67 -14 -18 4 -23 9 -15 14 7 4 10 15 6 24
-8 22 -57 22 -91 0 -26 -17 -26 -17 -15 4 6 11 25 33 43 47 28 24 39 28 94 39
27 5 75 -3 105 -18z m350 21 c0 -2 -9 -6 -20 -9 -11 -3 -18 -1 -14 4 5 9 34
13 34 5z m203 -13 c-7 -2 -19 -2 -25 0 -7 3 -2 5 12 5 14 0 19 -2 13 -5z m-43
-20 c-113 -11 -197 -55 -261 -136 -39 -49 -54 -53 -22 -7 61 92 169 150 273
148 37 -1 39 -2 10 -5z m-863 -30 c13 -14 23 -35 23 -45 0 -21 -41 -41 -51
-25 -4 6 -9 5 -12 -4 -2 -8 -3 -2 -1 14 2 15 -1 27 -6 27 -15 0 -12 47 3 53
20 9 20 8 44 -20z m981 7 c51 -23 105 -60 98 -67 -2 -3 -21 8 -41 23 -20 15
-60 36 -88 45 -29 10 -43 18 -32 18 11 1 39 -8 63 -19z m-395 -7 c-7 -2 -21
-2 -30 0 -10 3 -4 5 12 5 17 0 24 -2 18 -5z m270 -3 c-29 -4 -59 -10 -68 -13
-8 -4 -17 -2 -20 3 -8 13 15 18 80 18 l60 0 -52 -8z m-253 -30 c0 -11 -3 -20
-6 -20 -3 0 -17 9 -31 20 l-26 20 32 0 c24 0 31 -4 31 -20z m-396 1 c3 -5 -1
-11 -9 -15 -9 -3 -15 0 -15 9 0 16 16 20 24 6z m770 -17 c58 -30 116 -98 116
-136 0 -7 -9 7 -20 31 -11 24 -22 42 -25 39 -2 -2 4 -22 14 -44 11 -21 21 -68
24 -104 3 -42 2 -58 -4 -45 -8 18 -9 18 -8 -5 1 -14 1 -30 0 -37 -1 -18 -60
-82 -85 -94 -11 -5 -4 5 17 23 20 18 37 39 37 46 0 6 4 12 8 12 5 0 10 15 11
33 1 17 3 41 3 52 1 11 1 36 0 55 l-2 35 -25 -30 -25 -30 16 33 c34 72 -8 136
-111 172 -58 20 -58 20 -16 15 24 -3 57 -13 75 -21z m-495 -3 c-7 -11 -9 -26
-4 -37 8 -18 8 -18 13 1 10 44 47 60 71 31 9 -11 9 -19 -1 -35 -7 -12 -17 -21
-22 -21 -5 0 -21 -14 -35 -30 -34 -40 -75 -45 -78 -10 -1 14 -3 32 -4 40 -5
34 2 50 29 64 37 20 44 20 31 -3z m606 -50 c-3 -3 -18 8 -33 23 l-27 29 32
-23 c18 -13 30 -26 28 -29z m-915 19 c12 -8 10 -10 -9 -8 -17 2 -25 -2 -27
-17 -1 -11 -5 -30 -9 -41 -5 -16 2 -31 27 -58 18 -20 39 -36 45 -36 7 0 13 -4
13 -10 0 -14 -11 -12 -30 5 -13 12 -23 13 -44 5 -15 -5 -38 -10 -51 -10 -23 0
-23 2 -13 31 9 26 8 38 -7 65 -10 19 -21 34 -25 34 -5 0 -6 33 -1 48 3 7 118
0 131 -8z m140 3 c0 -9 -32 -43 -41 -43 -4 0 -2 11 4 25 11 22 37 35 37 18z
m681 -22 c46 -46 37 -121 -17 -141 -52 -20 -124 38 -124 98 0 11 9 31 21 46
29 37 81 36 120 -3z m-721 9 c0 -5 -2 -10 -4 -10 -3 0 -8 5 -11 10 -3 6 -1 10
4 10 6 0 11 -4 11 -10z m-294 -29 c-28 -29 -28 -58 0 -47 8 3 14 -1 14 -9 0
-21 22 -65 32 -65 5 0 4 9 -2 19 -13 25 -13 78 0 86 11 7 40 -12 40 -25 0 -5
-9 -6 -20 -3 -11 3 -20 0 -20 -6 0 -5 6 -8 13 -6 6 3 18 1 26 -4 12 -8 13 -15
3 -35 -11 -25 -20 -28 -89 -40 l-33 -5 0 50 c0 31 -4 48 -10 44 -25 -15 -7 16
25 44 45 39 58 40 21 2z m284 -52 c7 -17 9 -40 5 -56 -4 -16 -10 -22 -12 -15
-3 6 -17 12 -31 12 -31 1 -77 36 -86 66 -9 28 19 57 45 49 12 -4 19 -2 19 6 0
19 47 -29 60 -62z m338 22 c-12 -22 -26 -37 -30 -35 -7 5 39 74 48 74 3 0 -6
-18 -18 -39z m95 0 c-33 -21 -54 -62 -34 -69 6 -2 8 -14 5 -27 -4 -18 0 -27
19 -40 62 -40 120 66 67 123 -12 12 -17 22 -12 22 15 0 41 -34 53 -68 20 -57
-22 -132 -72 -132 -29 0 -78 49 -84 84 -8 42 17 103 47 116 39 15 45 11 11 -9z
m483 -47 c-9 -33 -19 -20 -30 36 l-6 35 21 -22 c17 -16 20 -28 15 -49z m-662
13 c-10 -6 -28 -21 -39 -33 -22 -24 -35 -22 -35 3 0 7 16 19 35 27 19 8 38 23
42 33 7 17 8 17 11 -1 2 -11 -4 -23 -14 -29z m311 -43 c5 -32 -19 -103 -32
-91 -2 3 0 14 6 25 15 29 13 82 -4 116 -21 40 -19 47 4 12 11 -16 22 -44 26
-62z m405 62 c0 -2 -7 -7 -16 -10 -8 -3 -12 -2 -9 4 6 10 25 14 25 6z m-1307
-65 c4 -29 2 -40 -4 -30 -8 13 -14 88 -5 78 2 -2 6 -24 9 -48z m624 -12 c1
-41 -8 -46 -14 -7 -3 20 2 48 9 48 2 0 4 -18 5 -41z m550 -21 c-2 -13 -4 -3
-4 22 0 25 2 35 4 23 2 -13 2 -33 0 -45z m-587 -14 c0 -49 -2 -55 -15 -44 -17
14 -20 53 -5 81 17 30 20 23 20 -37z m216 35 c8 -14 -18 -31 -30 -19 -9 9 0
30 14 30 5 0 12 -5 16 -11z m-576 -19 c8 -5 11 -12 8 -16 -4 -3 -14 1 -23 10
-18 17 -9 21 15 6z m420 -41 c0 -42 -3 -50 -17 -47 -9 2 -15 8 -12 13 2 6 7 9
12 8 4 -2 7 15 7 37 0 22 2 40 5 40 3 0 5 -23 5 -51z m375 11 c16 -31 21 -105
7 -114 -5 -3 -7 8 -4 23 2 16 -5 49 -16 75 -23 50 -12 64 13 16z m-682 -64
c-5 -78 -4 -88 21 -130 37 -63 35 -82 -9 -84 -20 -1 -40 -4 -45 -7 -6 -4 -10
15 -10 44 0 45 -3 51 -21 51 -11 0 -29 -5 -39 -10 -15 -8 -32 -3 -77 21 -32
17 -59 31 -60 30 -2 0 -9 -1 -15 -1 -10 0 -10 2 -1 8 14 9 3 63 -17 87 -9 10
-3 10 27 -1 21 -7 54 -13 73 -12 l35 1 -35 7 c-28 6 -22 7 28 6 65 -1 86 11
75 41 -4 10 0 14 13 12 10 -2 26 1 34 6 13 7 13 6 2 -7 -8 -9 -19 -15 -26 -12
-7 3 -13 -2 -13 -10 0 -19 32 -4 50 24 6 11 12 20 13 20 1 0 -1 -38 -3 -84z
m-213 70 c0 -3 -4 -8 -10 -11 -5 -3 -10 -1 -10 4 0 6 5 11 10 11 6 0 10 -2 10
-4z m50 0 c0 -11 -19 -15 -25 -6 -3 5 1 10 9 10 9 0 16 -2 16 -4z m780 -16
c-8 -6 -22 -10 -30 -9 -9 0 -5 6 10 14 27 14 44 10 20 -5z m-332 -2 c-6 -18
-28 -21 -28 -4 0 9 7 16 16 16 9 0 14 -5 12 -12z m662 -75 c0 -7 7 -13 16 -13
11 0 15 -6 11 -20 -3 -11 -1 -20 4 -20 5 0 9 -7 9 -16 0 -8 -4 -13 -9 -9 -6 3
-8 -9 -4 -29 3 -19 2 -43 -2 -53 -5 -15 -10 -11 -27 22 -11 22 -34 62 -50 88
-17 26 -28 50 -25 54 4 3 9 -2 13 -11 7 -18 34 -22 34 -6 0 6 -7 25 -16 41 -8
17 -13 38 -9 47 5 13 12 8 31 -23 13 -22 24 -46 24 -52z m-1050 56 c0 -5 -7
-9 -15 -9 -9 0 -12 6 -9 15 6 15 24 11 24 -6z m1056 -21 c23 -45 12 -43 -13 3
-12 21 -17 37 -12 33 5 -3 16 -19 25 -36z m-1096 22 c0 -5 -4 -10 -10 -10 -5
0 -10 5 -10 10 0 6 5 10 10 10 6 0 10 -4 10 -10z m190 -64 c-15 -15 -30 9 -30
49 l0 30 21 -34 c15 -25 17 -37 9 -45z m620 15 c0 -50 -27 -59 -59 -18 -17 22
1 47 35 47 20 0 24 -5 24 -29z m-594 -46 c-2 -7 1 -19 7 -26 10 -11 9 -11 -5
0 -10 7 -15 17 -12 22 3 5 -2 6 -10 3 -16 -6 -22 7 -10 19 10 10 35 -5 30 -18z
m1074 10 c27 -32 -33 -125 -81 -125 -24 0 -41 33 -33 65 6 25 67 75 90 75 6 0
17 -7 24 -15z m-852 -8 c-23 -9 -26 -14 -21 -44 5 -28 3 -33 -15 -33 -12 0
-28 10 -36 22 -15 20 -16 21 -34 5 -25 -22 -42 -21 -42 2 0 14 13 24 43 35 67
24 70 24 102 24 l30 0 -27 -11z m128 -9 c20 -9 24 -19 24 -52 0 -23 7 -54 15
-70 8 -16 12 -39 9 -52 -4 -13 -1 -31 6 -39 6 -8 9 -23 5 -34 -7 -22 25 -61
49 -61 18 0 58 -68 90 -154 23 -60 24 -67 8 -62 -10 3 -32 2 -50 -3 -35 -10
-43 2 -19 29 6 8 2 6 -10 -4 -19 -16 -37 -19 -102 -17 -53 2 -91 -3 -116 -13
-21 -9 -43 -16 -50 -16 -11 0 -35 40 -35 60 0 19 33 40 64 40 27 0 35 5 47 33
16 36 43 39 69 7 13 -17 18 -17 40 -5 55 31 107 10 98 -40 -3 -13 -1 -22 3
-19 13 8 11 48 -4 68 -15 20 -63 24 -95 7 -18 -10 -27 -8 -51 10 -23 17 -32
19 -50 10 -11 -7 -24 -23 -27 -36 -5 -19 -13 -25 -34 -25 -36 0 -83 57 -68 84
11 20 -3 42 -32 51 -21 7 -42 58 -34 80 4 8 1 15 -5 15 -20 0 -12 21 19 50 30
28 39 50 20 50 -5 0 -14 -9 -20 -20 -16 -30 -40 -25 -40 8 0 33 8 45 38 61 20
11 27 10 42 -4 29 -26 55 -15 55 23 0 17 5 32 11 32 6 0 17 7 25 16 14 17 58
13 105 -8z m104 -2 c0 -23 -18 -28 -29 -9 -6 10 -11 13 -11 6 0 -6 5 -15 10
-18 17 -10 11 -25 -10 -25 -23 0 -27 29 -8 48 17 17 48 15 48 -2z m45 -53 c0
-28 -2 -47 -6 -42 -3 5 -18 4 -36 -3 -37 -14 -63 -5 -63 22 0 15 7 20 29 20
18 0 31 -6 35 -16 4 -9 9 -14 13 -11 3 4 0 13 -7 22 -17 21 -4 67 18 63 13 -3
17 -14 17 -55z m45 -42 c-6 -22 -15 -41 -20 -41 -6 0 -10 3 -11 8 0 4 -2 23
-4 42 -2 19 -2 43 1 52 5 16 7 16 25 -1 18 -17 19 -23 9 -60z m-680 9 c12 -7
10 -9 -8 -7 -12 0 -22 5 -22 9 0 11 12 10 30 -2z m710 -4 c0 -7 -6 -19 -14
-25 -11 -9 -12 -6 -8 14 5 26 22 35 22 11z m184 -2 c24 -9 19 -30 -15 -58 -35
-30 -56 -32 -85 -11 -25 17 -34 11 -34 -21 0 -27 -34 -54 -68 -54 -57 0 -26
83 46 123 46 26 118 35 156 21z m-264 -29 c15 -18 -4 -28 -46 -23 -35 4 -43
25 -12 31 41 8 45 7 58 -8z m417 -27 c-3 -8 -6 -5 -6 6 -1 11 2 17 5 13 3 -3
4 -12 1 -19z m177 -4 c14 -36 -66 -135 -89 -112 -10 10 5 48 18 48 24 0 41 19
43 47 3 35 2 33 13 33 5 0 12 -7 15 -16z m-564 -1 c-1 -26 -17 -33 -46 -22
l-29 12 25 7 c34 11 50 11 50 3z m-614 -41 c-15 -15 -16 -15 -16 5 0 12 6 23
13 26 19 6 21 -13 3 -31z m44 34 c0 -3 -4 -8 -10 -11 -5 -3 -10 -1 -10 4 0 6
5 11 10 11 6 0 10 -2 10 -4z m13 -18 c-4 -7 -8 -17 -8 -23 0 -12 -8 -15 -32
-15 -14 1 -11 6 12 25 34 28 40 31 28 13z m474 0 c13 -17 26 -118 15 -118 -16
0 -32 24 -32 48 0 13 -5 32 -10 43 -17 31 6 53 27 27z m62 -80 c-1 -62 -1 -62
-14 -33 -19 42 -19 95 0 95 12 0 15 -13 14 -62z m-514 33 c3 -5 1 -12 -5 -16
-5 -3 -10 1 -10 9 0 18 6 21 15 7z m1090 -30 c-13 -27 -35 -42 -35 -25 0 8 44
62 48 59 2 -2 -4 -17 -13 -34z m-1137 17 c-6 -18 -25 -20 -31 -3 -5 10 0 15
14 15 12 0 19 -5 17 -12z m134 -48 c7 -11 23 -20 35 -20 12 0 29 -7 38 -16 14
-14 14 -18 1 -33 -9 -10 -12 -27 -9 -43 8 -40 -13 -35 -27 6 -6 19 -27 55 -46
80 -25 33 -31 46 -20 46 9 0 21 -9 28 -20z m-172 -97 c0 -20 -24 -11 -28 10
-2 12 1 15 12 11 9 -3 16 -13 16 -21z m81 -29 c28 -25 43 -54 28 -54 -6 0 -13
9 -16 20 -3 11 -14 20 -25 20 -24 0 -58 17 -58 30 0 15 49 4 71 -16z m789 -19
c-18 -21 -8 -28 23 -16 55 21 42 -26 -15 -55 -33 -17 -66 -11 -125 22 -57 33
-60 42 -10 37 24 -3 59 2 82 10 53 20 60 20 45 2z m-281 -126 c24 -11 41 -22
38 -25 -3 -3 -16 1 -29 10 -12 9 -34 16 -49 16 -33 0 -79 -35 -79 -61 0 -11
-7 -22 -16 -26 -19 -7 -81 20 -118 52 l-27 23 45 17 c26 10 53 14 66 10 17 -5
20 -4 15 5 -11 18 98 3 154 -21z m66 12 c10 -18 -17 -23 -33 -7 -15 15 -15 16
5 16 12 0 24 -4 28 -9z m42 -42 c12 -31 12 -31 -7 -14 -11 10 -20 24 -20 32 0
24 15 14 27 -18z m-97 -9 c11 -11 20 -29 20 -40 0 -49 -74 -78 -112 -43 -22
20 -24 66 -2 87 22 22 70 20 94 -4z"/>
<path d="M1097 2264 c-9 -10 2 -24 19 -24 8 0 14 7 14 15 0 15 -21 21 -33 9z"/>
<path d="M1460 2125 c13 -14 26 -25 28 -25 3 0 -5 11 -18 25 -13 14 -26 25
-28 25 -3 0 5 -11 18 -25z"/>
<path d="M1358 2093 c7 -3 16 -2 19 1 4 3 -2 6 -13 5 -11 0 -14 -3 -6 -6z"/>
<path d="M1448 2023 c6 -2 18 -2 25 0 6 3 1 5 -13 5 -14 0 -19 -2 -12 -5z"/>
<path d="M1424 1995 c-4 -9 0 -23 8 -31 20 -20 50 -7 46 20 -4 26 -45 35 -54
11z"/>
<path d="M1840 1836 c0 -2 8 -10 18 -17 15 -13 16 -12 3 4 -13 16 -21 21 -21
13z"/>
<path d="M1455 1813 c-16 -8 -40 -26 -53 -39 l-22 -24 32 7 c55 10 113 47 102
64 -7 13 -25 10 -59 -8z m25 -12 c0 -5 -7 -12 -16 -15 -21 -8 -24 -8 -24 5 0
5 5 7 10 4 6 -3 10 -1 10 4 0 6 5 11 10 11 6 0 10 -4 10 -9z m-50 -21 c0 -5
-5 -10 -11 -10 -5 0 -7 5 -4 10 3 6 8 10 11 10 2 0 4 -4 4 -10z"/>
<path d="M1164 1672 c-16 -10 -36 -51 -30 -61 6 -10 116 18 116 30 0 28 -59
49 -86 31z m45 -38 c-48 -18 -70 -17 -63 1 5 12 10 13 20 4 10 -8 17 -6 30 10
14 16 21 18 32 9 12 -10 8 -14 -19 -24z"/>
<path d="M1781 1533 c-27 -18 -28 -63 -2 -63 12 0 18 -7 17 -17 -1 -14 7 -18
34 -18 31 0 35 3 38 28 7 57 -46 99 -87 70z m67 -71 c2 -7 -3 -12 -12 -12 -9
0 -16 7 -16 16 0 17 22 14 28 -4z"/>
<path d="M1060 1495 c11 -13 10 -14 -3 -10 -8 4 -18 1 -23 -6 -4 -7 -3 -10 4
-6 20 13 43 -5 40 -32 -3 -23 1 -26 34 -32 20 -3 35 -2 32 3 -3 4 -18 8 -33 8
-24 0 -28 3 -24 24 5 27 -12 66 -29 66 -7 0 -6 -5 2 -15z"/>
<path d="M1085 1282 c-16 -9 -61 -19 -100 -23 l-70 -6 70 -3 c63 -3 66 -4 30
-10 -39 -7 -39 -7 -7 -9 38 -1 75 15 67 30 -4 5 -2 9 2 9 5 0 18 7 29 15 25
19 16 18 -21 -3z"/>
<path d="M1536 1153 c-16 -21 -23 -24 -54 -18 -32 6 -34 5 -23 -9 8 -9 24 -16
36 -16 30 0 68 32 64 52 -3 13 -8 11 -23 -9z"/>
<path d="M1412 1074 c-14 -10 -22 -25 -22 -45 0 -36 43 -124 67 -138 16 -9 16
-10 1 -11 -16 0 -49 38 -61 70 -4 11 -6 11 -6 -3 -1 -11 15 -35 34 -54 29 -29
40 -34 63 -29 35 9 62 41 62 75 0 29 -19 68 -20 41 -1 -8 -7 3 -15 25 -13 36
-55 85 -73 85 -4 0 -18 -7 -30 -16z m60 -64 c19 -37 24 -90 8 -90 -17 0 -42
48 -47 91 -7 51 11 50 39 -1z m48 -115 c-7 -8 -18 -15 -24 -15 -6 0 -3 5 7 11
9 5 17 18 18 27 0 11 2 12 6 4 3 -7 -1 -19 -7 -27z"/>
<path d="M1530 1080 c0 -5 5 -10 10 -10 6 0 10 5 10 10 0 6 -4 10 -10 10 -5 0
-10 -4 -10 -10z"/>
<path d="M1540 1029 c0 -5 5 -7 10 -4 6 3 10 8 10 11 0 2 -4 4 -10 4 -5 0 -10
-5 -10 -11z"/>
<path d="M1345 1010 c3 -5 8 -10 11 -10 2 0 4 5 4 10 0 6 -5 10 -11 10 -5 0
-7 -4 -4 -10z"/>
<path d="M1350 970 c0 -5 5 -10 10 -10 6 0 10 5 10 10 0 6 -4 10 -10 10 -5 0
-10 -4 -10 -10z"/>
<path d="M1742 1150 c0 -14 2 -19 5 -12 2 6 2 18 0 25 -3 6 -5 1 -5 -13z"/>
<path d="M1927 1093 c-14 -13 -6 -33 13 -33 13 0 20 7 20 20 0 19 -20 27 -33
13z"/>
<path d="M1782 1013 c5 -26 38 -29 38 -4 0 15 -6 21 -21 21 -14 0 -19 -5 -17
-17z"/>
<path d="M1470 640 c-8 -5 -10 -10 -5 -10 6 0 17 5 25 10 8 5 11 10 5 10 -5 0
-17 -5 -25 -10z"/>
<path d="M1662 598 c-7 -7 -12 -19 -12 -27 1 -13 3 -12 15 3 10 14 21 17 41
12 24 -6 26 -5 15 8 -16 19 -42 21 -59 4z"/>
<path d="M1581 2394 c0 -11 3 -14 6 -6 3 7 2 16 -1 19 -3 4 -6 -2 -5 -13z"/>
<path d="M2146 1513 c-3 -4 -1 -12 5 -20 14 -16 52 -18 47 -1 -5 13 -44 29
-52 21z"/>
<path d="M2330 1196 c0 -8 4 -17 9 -20 5 -4 7 3 4 14 -6 23 -13 26 -13 6z"/>
<path d="M2370 1114 c0 -12 7 -27 15 -34 19 -16 19 -3 0 30 -13 24 -14 24 -15
4z"/>
<path d="M2390 1046 c0 -9 5 -16 10 -16 6 0 10 4 10 9 0 6 -4 13 -10 16 -5 3
-10 -1 -10 -9z"/>
<path d="M2350 1026 c0 -17 14 -29 23 -20 8 8 -3 34 -14 34 -5 0 -9 -6 -9 -14z"/>
<path d="M2070 1025 c0 -3 16 -25 35 -51 43 -56 47 -44 4 14 -29 39 -39 49
-39 37z"/>
<path d="M2150 901 c0 -5 5 -13 10 -16 6 -3 10 -2 10 4 0 5 -4 13 -10 16 -5 3
-10 2 -10 -4z"/>
<path d="M2195 803 c14 -32 29 -78 35 -102 6 -23 14 -41 17 -38 11 12 -56 197
-71 197 -3 0 6 -26 19 -57z"/>
<path d="M1044 791 c7 -11 46 -35 46 -28 0 3 -12 12 -26 22 -15 9 -23 12 -20
6z"/>
<path d="M1130 737 c0 -3 12 -12 26 -22 15 -9 23 -12 20 -6 -7 11 -46 35 -46
28z"/>
<path d="M1190 696 c0 -2 8 -10 18 -17 15 -13 16 -12 3 4 -13 16 -21 21 -21
13z"/>
<path d="M1300 616 c0 -2 8 -10 18 -17 15 -13 16 -12 3 4 -13 16 -21 21 -21
13z"/>
<path d="M1794 572 c11 -12 30 -39 42 -60 26 -41 32 -37 10 6 -8 15 -27 38
-42 52 -25 22 -26 22 -10 2z"/>
</g>
</svg>
